<?xml version="1.0" encoding="UTF-8" standalone="no"?>
<!DOCTYPE svg PUBLIC "-//W3C//DTD SVG 1.1//EN"
 "http://www.w3.org/Graphics/SVG/1.1/DTD/svg11.dtd">
<!-- Generated by graphviz version 2.47.0 (20210316.0004)
 -->
<!-- Title: dependencies Pages: 1 -->
<svg width="1593pt" height="284pt"
 viewBox="0.00 0.00 1593.00 284.00" xmlns="http://www.w3.org/2000/svg" xmlns:xlink="http://www.w3.org/1999/xlink">
<g id="graph0" class="graph" transform="scale(1 1) rotate(0) translate(4 280)">
<title>dependencies</title>
<polygon fill="white" stroke="transparent" points="-4,4 -4,-280 1589,-280 1589,4 -4,4"/>
<text text-anchor="start" x="771.51" y="-42.4" font-family="Times-12" font-weight="bold" font-size="14.00">Legend</text>
<polygon fill="#ffffb3" stroke="transparent" points="558.5,-10 558.5,-30 578.5,-30 578.5,-10 558.5,-10"/>
<text text-anchor="start" x="582.13" y="-15.4" font-family="Times-12" font-size="14.00"> &#160;Declarations</text>
<polygon fill="#8dd3c7" stroke="transparent" points="671.5,-10 671.5,-30 691.5,-30 691.5,-10 671.5,-10"/>
<text text-anchor="start" x="695.23" y="-15.4" font-family="Times-12" font-size="14.00"> &#160;Module</text>
<polygon fill="#80b1d3" stroke="transparent" points="757.5,-10 757.5,-30 777.5,-30 777.5,-10 757.5,-10"/>
<text text-anchor="start" x="781.28" y="-15.4" font-family="Times-12" font-size="14.00"> &#160;Bootstrap</text>
<polygon fill="#fdb462" stroke="transparent" points="854.5,-10 854.5,-30 874.5,-30 874.5,-10 854.5,-10"/>
<text text-anchor="start" x="878.17" y="-15.4" font-family="Times-12" font-size="14.00"> &#160;Providers</text>
<polygon fill="#fb8072" stroke="transparent" points="950.5,-10 950.5,-30 970.5,-30 970.5,-10 950.5,-10"/>
<text text-anchor="start" x="974.23" y="-15.4" font-family="Times-12" font-size="14.00"> &#160;Exports</text>
<g id="clust1" class="cluster">
<title>cluster_AppModule</title>
<polygon fill="none" stroke="black" stroke-dasharray="1,5" points="8,-70 8,-268 1577,-268 1577,-70 8,-70"/>
</g>
<g id="clust16" class="cluster">
<title>cluster_AppModule_bootstrap</title>
<polygon fill="none" stroke="black" points="722,-208 722,-260 846,-260 846,-208 722,-208"/>
</g>
<g id="clust2" class="cluster">
<title>cluster_AppModule_declarations</title>
<polygon fill="none" stroke="black" points="16,-78 16,-130 1569,-130 1569,-78 16,-78"/>
</g>
<!-- AppComponent -->
<g id="node1" class="node">
<title>AppComponent</title>
<polygon fill="#ffffb3" stroke="black" points="1560.94,-122 1455.06,-122 1455.06,-86 1560.94,-86 1560.94,-122"/>
<text text-anchor="middle" x="1508" y="-99.8" font-family="Times,serif" font-size="14.00">AppComponent</text>
</g>
<!-- AppModule -->
<g id="node12" class="node">
<title>AppModule</title>
<polygon fill="#8dd3c7" stroke="black" points="825.66,-187 822.66,-191 801.66,-191 798.66,-187 742.34,-187 742.34,-151 825.66,-151 825.66,-187"/>
<text text-anchor="middle" x="784" y="-164.8" font-family="Times,serif" font-size="14.00">AppModule</text>
</g>
<!-- AppComponent&#45;&gt;AppModule -->
<g id="edge1" class="edge">
<title>AppComponent&#45;&gt;AppModule</title>
<path fill="none" stroke="black" d="M1508,-122.25C1508,-145.02 1508,-181 1508,-181 1508,-181 835.79,-181 835.79,-181"/>
<polygon fill="black" stroke="black" points="835.79,-177.5 825.79,-181 835.79,-184.5 835.79,-177.5"/>
</g>
<!-- CloseComponent -->
<g id="node2" class="node">
<title>CloseComponent</title>
<polygon fill="#ffffb3" stroke="black" points="1437.72,-122 1324.28,-122 1324.28,-86 1437.72,-86 1437.72,-122"/>
<text text-anchor="middle" x="1381" y="-99.8" font-family="Times,serif" font-size="14.00">CloseComponent</text>
</g>
<!-- CloseComponent&#45;&gt;AppModule -->
<g id="edge2" class="edge">
<title>CloseComponent&#45;&gt;AppModule</title>
<path fill="none" stroke="black" d="M1381,-122.28C1381,-143.32 1381,-175 1381,-175 1381,-175 835.98,-175 835.98,-175"/>
<polygon fill="black" stroke="black" points="835.98,-171.5 825.98,-175 835.98,-178.5 835.98,-171.5"/>
</g>
<!-- ControlsButtonComponent -->
<g id="node3" class="node">
<title>ControlsButtonComponent</title>
<polygon fill="#ffffb3" stroke="black" points="1306.67,-122 1139.33,-122 1139.33,-86 1306.67,-86 1306.67,-122"/>
<text text-anchor="middle" x="1223" y="-99.8" font-family="Times,serif" font-size="14.00">ControlsButtonComponent</text>
</g>
<!-- ControlsButtonComponent&#45;&gt;AppModule -->
<g id="edge3" class="edge">
<title>ControlsButtonComponent&#45;&gt;AppModule</title>
<path fill="none" stroke="black" d="M1223,-122.11C1223,-141.34 1223,-169 1223,-169 1223,-169 835.7,-169 835.7,-169"/>
<polygon fill="black" stroke="black" points="835.7,-165.5 825.7,-169 835.7,-172.5 835.7,-165.5"/>
</g>
<!-- ControlsComponent -->
<g id="node4" class="node">
<title>ControlsComponent</title>
<polygon fill="#ffffb3" stroke="black" points="1120.56,-122 991.44,-122 991.44,-86 1120.56,-86 1120.56,-122"/>
<text text-anchor="middle" x="1056" y="-99.8" font-family="Times,serif" font-size="14.00">ControlsComponent</text>
</g>
<!-- ControlsComponent&#45;&gt;AppModule -->
<g id="edge4" class="edge">
<title>ControlsComponent&#45;&gt;AppModule</title>
<path fill="none" stroke="black" d="M1056,-122.02C1056,-139.37 1056,-163 1056,-163 1056,-163 835.9,-163 835.9,-163"/>
<polygon fill="black" stroke="black" points="835.9,-159.5 825.9,-163 835.9,-166.5 835.9,-159.5"/>
</g>
<!-- CursorComponent -->
<g id="node5" class="node">
<title>CursorComponent</title>
<polygon fill="#ffffb3" stroke="black" points="973.94,-122 854.06,-122 854.06,-86 973.94,-86 973.94,-122"/>
<text text-anchor="middle" x="914" y="-99.8" font-family="Times,serif" font-size="14.00">CursorComponent</text>
</g>
<!-- CursorComponent&#45;&gt;AppModule -->
<g id="edge5" class="edge">
<title>CursorComponent&#45;&gt;AppModule</title>
<path fill="none" stroke="black" d="M914,-122.24C914,-137.57 914,-157 914,-157 914,-157 835.85,-157 835.85,-157"/>
<polygon fill="black" stroke="black" points="835.85,-153.5 825.85,-157 835.85,-160.5 835.85,-153.5"/>
</g>
<!-- HomepagePage -->
<g id="node6" class="node">
<title>HomepagePage</title>
<polygon fill="#ffffb3" stroke="black" points="835.85,-122 732.15,-122 732.15,-86 835.85,-86 835.85,-122"/>
<text text-anchor="middle" x="784" y="-99.8" font-family="Times,serif" font-size="14.00">HomepagePage</text>
</g>
<!-- HomepagePage&#45;&gt;AppModule -->
<g id="edge6" class="edge">
<title>HomepagePage&#45;&gt;AppModule</title>
<path fill="none" stroke="black" d="M784,-122.11C784,-122.11 784,-140.99 784,-140.99"/>
<polygon fill="black" stroke="black" points="780.5,-140.99 784,-150.99 787.5,-140.99 780.5,-140.99"/>
</g>
<!-- InfoMessageComponent -->
<g id="node7" class="node">
<title>InfoMessageComponent</title>
<polygon fill="#ffffb3" stroke="black" points="713.63,-122 560.37,-122 560.37,-86 713.63,-86 713.63,-122"/>
<text text-anchor="middle" x="637" y="-99.8" font-family="Times,serif" font-size="14.00">InfoMessageComponent</text>
</g>
<!-- InfoMessageComponent&#45;&gt;AppModule -->
<g id="edge7" class="edge">
<title>InfoMessageComponent&#45;&gt;AppModule</title>
<path fill="none" stroke="black" d="M637,-122.24C637,-137.57 637,-157 637,-157 637,-157 732.27,-157 732.27,-157"/>
<polygon fill="black" stroke="black" points="732.27,-160.5 742.27,-157 732.27,-153.5 732.27,-160.5"/>
</g>
<!-- LoaderComponent -->
<g id="node8" class="node">
<title>LoaderComponent</title>
<polygon fill="#ffffb3" stroke="black" points="542.47,-122 421.53,-122 421.53,-86 542.47,-86 542.47,-122"/>
<text text-anchor="middle" x="482" y="-99.8" font-family="Times,serif" font-size="14.00">LoaderComponent</text>
</g>
<!-- LoaderComponent&#45;&gt;AppModule -->
<g id="edge8" class="edge">
<title>LoaderComponent&#45;&gt;AppModule</title>
<path fill="none" stroke="black" d="M482,-122.02C482,-139.37 482,-163 482,-163 482,-163 732.33,-163 732.33,-163"/>
<polygon fill="black" stroke="black" points="732.33,-166.5 742.33,-163 732.33,-159.5 732.33,-166.5"/>
</g>
<!-- MainComponent -->
<g id="node9" class="node">
<title>MainComponent</title>
<polygon fill="#ffffb3" stroke="black" points="403.38,-122 292.62,-122 292.62,-86 403.38,-86 403.38,-122"/>
<text text-anchor="middle" x="348" y="-99.8" font-family="Times,serif" font-size="14.00">MainComponent</text>
</g>
<!-- MainComponent&#45;&gt;AppModule -->
<g id="edge9" class="edge">
<title>MainComponent&#45;&gt;AppModule</title>
<path fill="none" stroke="black" d="M348,-122.11C348,-141.34 348,-169 348,-169 348,-169 732.19,-169 732.19,-169"/>
<polygon fill="black" stroke="black" points="732.19,-172.5 742.19,-169 732.19,-165.5 732.19,-172.5"/>
</g>
<!-- PageComponent -->
<g id="node10" class="node">
<title>PageComponent</title>
<polygon fill="#ffffb3" stroke="black" points="274.05,-122 165.95,-122 165.95,-86 274.05,-86 274.05,-122"/>
<text text-anchor="middle" x="220" y="-99.8" font-family="Times,serif" font-size="14.00">PageComponent</text>
</g>
<!-- PageComponent&#45;&gt;AppModule -->
<g id="edge10" class="edge">
<title>PageComponent&#45;&gt;AppModule</title>
<path fill="none" stroke="black" d="M220,-122.28C220,-143.32 220,-175 220,-175 220,-175 732.07,-175 732.07,-175"/>
<polygon fill="black" stroke="black" points="732.07,-178.5 742.07,-175 732.07,-171.5 732.07,-178.5"/>
</g>
<!-- PreloadComponent -->
<g id="node11" class="node">
<title>PreloadComponent</title>
<polygon fill="#ffffb3" stroke="black" points="148.1,-122 23.9,-122 23.9,-86 148.1,-86 148.1,-122"/>
<text text-anchor="middle" x="86" y="-99.8" font-family="Times,serif" font-size="14.00">PreloadComponent</text>
</g>
<!-- PreloadComponent&#45;&gt;AppModule -->
<g id="edge11" class="edge">
<title>PreloadComponent&#45;&gt;AppModule</title>
<path fill="none" stroke="black" d="M86,-122.25C86,-145.02 86,-181 86,-181 86,-181 732.17,-181 732.17,-181"/>
<polygon fill="black" stroke="black" points="732.17,-184.5 742.17,-181 732.17,-177.5 732.17,-184.5"/>
</g>
<!-- AppComponent  -->
<g id="node13" class="node">
<title>AppComponent </title>
<polygon fill="#80b1d3" stroke="black" points="838.44,-252 729.56,-252 729.56,-216 838.44,-216 838.44,-252"/>
<text text-anchor="middle" x="784" y="-229.8" font-family="Times,serif" font-size="14.00">AppComponent </text>
</g>
<!-- AppModule&#45;&gt;AppComponent  -->
<g id="edge12" class="edge">
<title>AppModule&#45;&gt;AppComponent </title>
<path fill="none" stroke="black" stroke-dasharray="1,5" d="M784,-187.11C784,-187.11 784,-205.99 784,-205.99"/>
<polygon fill="black" stroke="black" points="780.5,-205.99 784,-215.99 787.5,-205.99 780.5,-205.99"/>
</g>
</g>
</svg>
