<svg xmlns="http://www.w3.org/2000/svg" viewBox="3.99 3.99 22.03 22.02"><path d="M 4.9902344 3.9902344 A 1.0001 1.0001 0 0 0 4.2929688 5.7070312 L 8.5859375 10 L 6 10 A 1.0001 1.0001 0 1 0 6 12 L 10.847656 12 A 1.0001 1.0001 0 0 0 12 10.847656 L 12 6 A 1.0001 1.0001 0 0 0 10.984375 4.9863281 A 1.0001 1.0001 0 0 0 10 6 L 10 8.5859375 L 5.7070312 4.2929688 A 1.0001 1.0001 0 0 0 4.9902344 3.9902344 z M 24.980469 3.9902344 A 1.0001 1.0001 0 0 0 24.292969 4.2929688 L 20 8.5859375 L 20 6 A 1.0001 1.0001 0 0 0 18.984375 4.9863281 A 1.0001 1.0001 0 0 0 18 6 L 18 10.847656 A 1.0001 1.0001 0 0 0 19.152344 12 L 24 12 A 1.0001 1.0001 0 1 0 24 10 L 21.414062 10 L 25.707031 5.7070312 A 1.0001 1.0001 0 0 0 24.980469 3.9902344 z M 10.980469 17.990234 A 1.0001 1.0001 0 0 0 10.869141 18 L 6 18 A 1.0001 1.0001 0 1 0 6 20 L 8.5859375 20 L 4.2929688 24.292969 A 1.0001 1.0001 0 1 0 5.7070312 25.707031 L 10 21.414062 L 10 24 A 1.0001 1.0001 0 1 0 12 24 L 12 19.126953 A 1.0001 1.0001 0 0 0 10.980469 17.990234 z M 18.990234 17.990234 A 1.0001 1.0001 0 0 0 18 19.128906 L 18 24 A 1.0001 1.0001 0 1 0 20 24 L 20 21.414062 L 24.292969 25.707031 A 1.0001 1.0001 0 1 0 25.707031 24.292969 L 21.414062 20 L 24 20 A 1.0001 1.0001 0 1 0 24 18 L 19.117188 18 A 1.0001 1.0001 0 0 0 18.990234 17.990234 z"/></svg>
