<svg xmlns="http://www.w3.org/2000/svg" width="20" height="19.997" viewBox="0 0 20 19.997">
  <path d="M4.9,3.99A.908.908,0,0,0,4,5.024V9.447a.908.908,0,1,0,1.816,0V7.1l3.9,3.9A.908.908,0,1,0,11,9.713l-3.9-3.9H9.446A.908.908,0,1,0,9.446,4H5.013A.908.908,0,0,0,4.9,3.99Zm18.15,0a.908.908,0,0,0-.1.009H18.526a.908.908,0,1,0,0,1.816h2.348l-3.9,3.9A.908.908,0,1,0,18.26,11l3.9-3.9V9.447a.908.908,0,1,0,1.816,0V5.022a.908.908,0,0,0-.926-1.032ZM10.337,16.7a.908.908,0,0,0-.624.275l-3.9,3.9V18.526a.908.908,0,1,0-1.816,0v4.4a.908.908,0,0,0,1.046,1.046h4.4a.908.908,0,1,0,0-1.816H7.1l3.9-3.9a.908.908,0,0,0-.66-1.559Zm7.272,0a.908.908,0,0,0-.633,1.559l3.9,3.9H18.526a.908.908,0,1,0,0,1.816h4.4a.908.908,0,0,0,1.046-1.046v-4.4a.908.908,0,1,0-1.816,0v2.348l-3.9-3.9a.908.908,0,0,0-.651-.275Z" transform="translate(-3.986 -3.99)"/>
</svg>
